<svg width="35" height="35" viewBox="0 0 35 35" fill="none" xmlns="http://www.w3.org/2000/svg">
<path d="M32.0833 0H2.91667C2.14312 0 1.40125 0.307291 0.854272 0.854272C0.307291 1.40125 0 2.14312 0 2.91667V32.0833C0 32.8569 0.307291 33.5987 0.854272 34.1457C1.40125 34.6927 2.14312 35 2.91667 35H32.0833C32.8569 35 33.5987 34.6927 34.1457 34.1457C34.6927 33.5987 35 32.8569 35 32.0833V2.91667C35 2.14312 34.6927 1.40125 34.1457 0.854272C33.5987 0.307291 32.8569 0 32.0833 0ZM2.91667 32.0833V4.97839L30.0216 32.0833H2.91667ZM4.97839 2.91667H32.0833V30.0234L4.97839 2.91667Z" fill="black"/>
</svg>
