<svg width="20" height="20" viewBox="0 0 20 20" fill="none" xmlns="http://www.w3.org/2000/svg">
<path d="M14.2388 0.219888C14.4127 0.235513 14.4888 0.448013 14.3638 0.571971L5.69709 9.23864C5.59918 9.3366 5.52908 9.45883 5.49396 9.5928L4.4523 13.5824C4.41791 13.7142 4.4186 13.8528 4.45431 13.9843C4.49001 14.1158 4.55948 14.2356 4.65583 14.332C4.75218 14.4283 4.87205 14.4978 5.00354 14.5335C5.13503 14.5692 5.27358 14.5699 5.40542 14.5355L9.39396 13.4938C9.52803 13.4584 9.65026 13.3879 9.74813 13.2897L18.5377 4.5001C18.5652 4.47186 18.6002 4.4521 18.6386 4.44315C18.677 4.4342 18.7171 4.43643 18.7543 4.44958C18.7914 4.46273 18.824 4.48625 18.8482 4.51736C18.8724 4.54846 18.8872 4.58585 18.8908 4.6251C19.2565 8.11429 19.2356 11.6332 18.8283 15.1178C18.596 17.1022 17.0013 18.6595 15.0242 18.8813C11.403 19.2828 7.74849 19.2828 4.1273 18.8813C2.14917 18.6595 0.554379 17.1022 0.322088 15.1178C-0.107363 11.4459 -0.107363 7.73654 0.322088 4.06468C0.554379 2.07926 2.14917 0.521971 4.1273 0.301138C7.48617 -0.0710945 10.8743 -0.09832 14.2388 0.219888Z" fill="#0C143E"/>
</svg>
